<?xml version="1.0" standalone="no"?>
<!DOCTYPE svg PUBLIC "-//W3C//DTD SVG 20010904//EN"
 "http://www.w3.org/TR/2001/REC-SVG-20010904/DTD/svg10.dtd">
<svg version="1.0" xmlns="http://www.w3.org/2000/svg"
 width="1978.000000pt" height="1978.000000pt" viewBox="0 0 1978.000000 1978.000000"
 preserveAspectRatio="xMidYMid meet">
<metadata>
Created by potrace 1.11, written by Peter Selinger 2001-2013
</metadata>
<g transform="translate(0.000000,1978.000000) scale(0.100000,-0.100000)"
fill="#000000" stroke="none">
<path d="M8337 19453 c-4 -3 -7 -689 -7 -1523 l0 -1517 -47 -18 c-65 -24 -284
-133 -304 -151 -8 -8 -19 -14 -23 -14 -26 0 -206 -160 -240 -213 -10 -14 -30
-27 -49 -31 -141 -27 -561 -144 -807 -226 -197 -65 -535 -188 -605 -220 -11
-5 -81 -35 -155 -66 -182 -76 -216 -92 -428 -195 -100 -49 -187 -89 -192 -89
-4 0 -10 -3 -12 -7 -1 -5 -44 -29 -95 -56 -76 -39 -228 -125 -418 -237 -147
-86 -536 -345 -589 -392 -11 -10 -23 -18 -27 -18 -4 0 -14 -6 -21 -13 -7 -7
-51 -42 -98 -77 -47 -35 -122 -95 -167 -132 -45 -37 -87 -68 -92 -68 -6 0 -11
-4 -11 -9 0 -5 -30 -33 -67 -63 -37 -29 -76 -62 -88 -73 -12 -11 -68 -63 -125
-115 -111 -101 -339 -327 -430 -426 -93 -101 -196 -217 -235 -264 -20 -25 -44
-54 -53 -65 -10 -11 -50 -63 -91 -115 -40 -52 -80 -100 -87 -106 -8 -6 -14
-14 -14 -18 0 -4 -19 -32 -42 -64 -51 -67 -48 -64 -162 -234 -49 -73 -94 -136
-100 -140 -6 -4 -8 -8 -4 -8 5 0 -11 -30 -35 -67 -24 -38 -55 -88 -69 -113
-51 -89 -71 -125 -85 -152 -8 -16 -19 -28 -25 -28 -6 0 -9 -3 -5 -6 3 -3 -24
-65 -61 -138 -37 -72 -90 -180 -116 -241 -27 -60 -60 -134 -74 -164 -13 -30
-25 -60 -27 -65 -1 -6 -6 -20 -10 -31 -38 -93 -100 -263 -135 -375 -24 -74
-46 -137 -49 -140 -3 -3 -7 -14 -8 -25 -2 -25 -10 -63 -17 -73 -3 -5 -7 -19
-10 -33 -3 -13 -7 -33 -10 -44 -3 -11 -11 -44 -17 -73 -10 -43 -17 -56 -38
-64 -66 -27 -102 -44 -186 -85 -49 -25 -94 -49 -100 -53 -29 -23 -103 -58
-110 -52 -3 4 -5 2 -3 -4 1 -6 -34 -38 -78 -72 -112 -85 -213 -181 -286 -271
-33 -42 -65 -77 -69 -79 -5 -2 -9 -8 -9 -13 0 -5 -15 -32 -34 -61 -50 -79 -90
-163 -125 -261 -32 -92 -34 -97 -55 -217 -14 -72 -15 -317 -3 -366 3 -12 8
-37 11 -55 3 -19 14 -63 25 -99 94 -321 318 -607 641 -820 52 -34 94 -67 92
-72 -1 -5 2 -7 6 -4 5 3 58 -18 118 -48 60 -29 131 -61 157 -71 55 -21 61 -30
82 -117 9 -35 17 -70 19 -78 3 -8 11 -36 20 -61 9 -25 17 -54 19 -65 2 -10 7
-26 10 -34 13 -30 49 -136 54 -160 3 -14 9 -29 13 -35 3 -5 14 -32 24 -60 22
-64 22 -64 91 -230 7 -16 25 -56 39 -88 14 -32 26 -60 26 -63 0 -7 172 -351
211 -422 18 -31 63 -109 100 -173 38 -64 69 -120 69 -123 0 -4 9 -17 20 -29
11 -12 18 -27 16 -34 -3 -7 -1 -12 3 -10 5 1 53 -63 106 -143 54 -80 102 -147
107 -148 4 -2 8 -8 8 -14 0 -6 12 -25 28 -44 60 -73 73 -94 66 -105 -4 -7 -3
-9 4 -5 6 3 31 -21 59 -56 26 -35 56 -73 66 -85 11 -11 20 -25 21 -29 0 -4 15
-21 31 -39 65 -70 76 -85 69 -96 -4 -7 -3 -9 4 -5 14 8 44 -22 35 -37 -3 -7
-3 -9 2 -5 4 4 17 -2 27 -15 106 -123 369 -395 504 -520 40 -36 70 -68 68 -71
-2 -3 -1 -4 3 -1 3 3 29 -16 57 -43 71 -64 121 -109 184 -160 28 -24 49 -49
45 -54 -4 -7 -1 -8 7 -3 7 4 15 4 19 -1 3 -5 42 -38 86 -72 44 -35 88 -69 97
-77 9 -7 28 -21 42 -30 14 -10 23 -21 20 -26 -3 -5 -2 -9 3 -8 23 4 35 -2 29
-17 -3 -8 -2 -12 4 -9 14 9 52 -14 44 -27 -5 -7 -2 -8 5 -4 7 5 20 1 29 -8 19
-19 151 -113 212 -151 24 -15 38 -30 34 -37 -4 -7 -3 -8 4 -4 10 6 183 -99
190 -116 2 -5 8 -8 13 -8 19 0 79 -47 71 -55 -4 -5 -2 -5 4 -2 7 4 90 -39 185
-96 96 -56 192 -111 214 -122 22 -11 42 -22 45 -25 3 -3 43 -25 90 -49 47 -23
114 -58 150 -76 61 -32 274 -134 365 -175 22 -10 65 -29 95 -43 30 -13 72 -30
92 -38 20 -7 34 -17 31 -22 -3 -6 -1 -7 5 -3 7 4 26 1 44 -7 18 -8 49 -21 68
-30 42 -17 260 -100 313 -118 20 -7 37 -17 37 -22 0 -4 4 -6 8 -3 8 5 228 -67
239 -78 4 -3 15 -6 25 -6 11 0 28 -5 38 -10 17 -9 18 -13 5 -38 -8 -15 -30
-62 -50 -106 -20 -43 -48 -97 -63 -120 -15 -22 -31 -49 -37 -58 -9 -15 -109
-176 -135 -218 -13 -20 -308 -498 -329 -532 -9 -15 -33 -54 -53 -87 -20 -33
-33 -63 -27 -66 5 -4 9 -11 9 -17 0 -7 -4 -7 -13 0 -7 6 -18 7 -26 2 -8 -4
-20 -6 -28 -3 -7 3 -13 0 -13 -7 0 -10 -3 -10 -15 0 -8 7 -15 8 -15 3 0 -8
-15 -12 -57 -15 -7 -1 -13 -5 -13 -9 0 -4 -9 -6 -20 -4 -11 2 -22 -1 -25 -6
-4 -5 -10 -7 -15 -4 -5 3 -11 1 -15 -4 -3 -5 -14 -8 -25 -6 -11 2 -20 0 -20
-6 0 -5 -3 -8 -7 -7 -5 1 -28 -5 -53 -12 -25 -8 -48 -14 -52 -16 -5 -1 -11 -3
-15 -4 -5 -1 -11 -2 -15 -1 -5 0 -8 -4 -8 -11 0 -6 -3 -8 -7 -5 -3 4 -15 -1
-26 -10 -11 -10 -17 -12 -13 -5 10 17 2 15 -38 -7 -19 -11 -36 -17 -39 -14 -3
2 -16 -2 -29 -10 -12 -8 -41 -20 -63 -27 -22 -7 -46 -17 -52 -23 -7 -5 -13 -6
-13 -1 0 5 -4 4 -8 -3 -4 -6 -20 -14 -36 -17 -16 -3 -33 -11 -38 -18 -4 -7 -8
-9 -8 -4 0 5 -6 3 -13 -3 -8 -6 -17 -8 -20 -4 -4 3 -7 1 -7 -5 0 -7 -3 -11 -7
-10 -5 1 -21 -5 -38 -12 -16 -7 -32 -14 -35 -15 -3 0 -15 -6 -26 -13 -12 -6
-24 -9 -26 -6 -3 2 -11 -2 -18 -11 -7 -8 -21 -15 -31 -15 -11 0 -19 -5 -19
-11 0 -5 -4 -7 -10 -4 -5 3 -10 1 -10 -6 0 -7 -3 -10 -6 -6 -4 3 -27 -5 -53
-18 -25 -14 -52 -25 -58 -25 -7 0 -13 -4 -13 -10 0 -5 -6 -10 -12 -10 -15 0
-144 -65 -167 -83 -12 -10 -13 -9 -7 3 7 13 6 13 -6 0 -7 -8 -20 -16 -28 -18
-8 -2 -17 -8 -18 -13 -2 -5 -8 -7 -13 -3 -5 3 -9 0 -9 -5 0 -6 -7 -11 -15 -11
-8 0 -15 -4 -15 -10 0 -5 -7 -7 -15 -4 -8 4 -15 2 -15 -3 0 -5 -21 -20 -47
-33 -27 -12 -57 -30 -67 -39 -16 -13 -18 -13 -11 -1 7 12 6 13 -6 4 -8 -5 -21
-10 -29 -9 -8 0 -18 -3 -21 -8 -3 -4 -16 -9 -27 -10 -12 -1 -22 -5 -22 -10 0
-4 -4 -6 -9 -2 -10 6 -62 -14 -72 -29 -4 -5 -12 -5 -18 -2 -6 4 -11 2 -11 -3
0 -6 -12 -11 -26 -11 -14 0 -23 -4 -19 -10 4 -6 -5 -10 -19 -10 -14 0 -26 -5
-26 -11 0 -5 -4 -8 -9 -5 -5 4 -11 1 -13 -4 -2 -6 -17 -13 -33 -16 -16 -3 -32
-9 -35 -13 -3 -4 -20 -13 -37 -20 -18 -8 -33 -17 -33 -22 0 -5 -6 -6 -14 -3
-8 3 -17 0 -21 -5 -3 -6 -11 -9 -16 -6 -5 4 -9 3 -9 -2 0 -7 -50 -34 -70 -39
-3 0 -18 -7 -35 -14 -16 -7 -33 -13 -37 -12 -5 1 -8 -3 -8 -9 0 -5 -5 -7 -10
-4 -6 3 -10 1 -10 -4 0 -6 -9 -11 -20 -11 -11 0 -20 -4 -20 -10 0 -5 -3 -9 -7
-8 -5 0 -25 -6 -45 -15 -21 -10 -42 -17 -48 -17 -5 0 -10 -5 -10 -11 0 -5 -4
-7 -10 -4 -5 3 -10 1 -10 -4 0 -6 -3 -10 -7 -10 -20 3 -34 -2 -28 -10 3 -6 -4
-8 -15 -6 -11 2 -20 0 -20 -5 0 -5 -14 -11 -30 -15 -17 -4 -30 -11 -30 -16 0
-5 -3 -8 -7 -7 -14 4 -53 -13 -53 -23 0 -5 -3 -8 -7 -8 -23 4 -45 -3 -61 -19
-10 -9 -27 -18 -37 -20 -11 -2 -27 -4 -35 -5 -8 -1 -20 -9 -27 -17 -7 -8 -13
-11 -13 -6 0 5 -9 1 -20 -9 -11 -10 -20 -15 -20 -11 0 3 -13 0 -29 -8 -16 -9
-31 -12 -35 -9 -3 4 -6 2 -6 -4 0 -10 -36 -26 -53 -24 -4 1 -7 -4 -7 -10 0 -5
-4 -8 -9 -5 -5 4 -12 0 -14 -6 -4 -10 -6 -9 -6 1 -1 11 -6 10 -21 -4 -11 -10
-20 -15 -20 -11 0 4 -13 -2 -29 -13 -15 -11 -31 -18 -35 -14 -3 3 -6 0 -6 -8
0 -11 -2 -11 -10 1 -5 8 -10 10 -10 4 0 -11 -20 -20 -60 -29 -8 -2 -16 -9 -18
-15 -2 -5 -8 -8 -13 -5 -4 3 -19 -1 -32 -10 -13 -8 -26 -13 -29 -10 -3 3 -22
-3 -42 -14 -20 -12 -54 -24 -76 -27 -22 -4 -37 -10 -34 -15 5 -8 -17 -14 -39
-10 -4 0 -7 -4 -7 -10 0 -6 -6 -9 -14 -6 -8 3 -16 1 -18 -4 -2 -5 -13 -11 -26
-12 -12 0 -22 -5 -22 -9 0 -4 -7 -5 -15 -2 -8 4 -15 1 -15 -6 0 -6 -4 -9 -9
-6 -4 3 -27 -4 -51 -15 -23 -11 -44 -18 -47 -15 -3 3 -19 -2 -35 -10 -16 -8
-33 -12 -38 -9 -6 3 -10 2 -10 -3 0 -6 -7 -13 -16 -16 -9 -4 -13 -2 -8 5 3 6
-4 4 -17 -4 -24 -16 -63 -27 -107 -31 -13 -2 -28 -9 -33 -17 -5 -8 -9 -10 -9
-4 0 5 -5 4 -11 -2 -6 -6 -18 -9 -25 -6 -8 3 -14 1 -14 -3 0 -8 -17 -12 -72
-17 -10 -1 -18 -5 -18 -9 0 -4 3726 -8 8280 -8 7083 0 8279 2 8268 14 -7 8
-16 12 -19 10 -3 -2 -16 6 -27 17 -12 11 -22 17 -22 13 0 -4 -8 0 -18 9 -10
10 -22 14 -25 10 -4 -3 -7 -1 -7 5 0 7 -7 12 -15 12 -7 0 -18 8 -24 17 -5 10
-13 15 -17 11 -4 -4 -21 3 -38 15 -17 12 -33 22 -36 22 -3 1 -15 6 -26 13 -12
6 -24 8 -28 5 -3 -3 -6 -1 -6 5 0 7 -7 12 -15 12 -8 0 -15 5 -15 10 0 6 -8 10
-18 10 -10 0 -24 6 -31 13 -11 10 -13 9 -7 -3 4 -8 -2 -5 -13 8 -11 13 -24 23
-28 23 -26 1 -91 24 -87 31 3 4 -6 8 -20 8 -14 0 -26 5 -26 10 0 6 -11 10 -24
10 -14 0 -28 5 -31 11 -4 6 -13 8 -21 5 -8 -3 -14 -1 -14 5 0 6 -4 8 -9 5 -5
-4 -11 -2 -13 4 -1 5 -15 11 -30 12 -16 1 -28 6 -28 11 0 4 -5 5 -10 2 -5 -3
-10 0 -10 7 0 9 -3 9 -10 -2 -7 -12 -10 -12 -10 -1 0 8 -6 11 -15 7 -9 -3 -18
1 -21 9 -4 8 -10 12 -15 9 -6 -3 -16 0 -24 6 -8 7 -15 9 -15 5 0 -4 -6 -2 -14
4 -11 9 -15 9 -18 0 -3 -8 -9 -6 -21 5 -9 10 -17 14 -17 10 0 -3 -8 0 -17 7
-15 12 -16 12 -8 -1 8 -13 6 -13 -8 -2 -9 8 -20 11 -26 8 -5 -3 -11 -1 -13 4
-2 6 -24 12 -50 13 -25 1 -44 5 -41 10 4 6 -28 12 -49 8 -5 0 -8 3 -8 7 0 7
-20 11 -72 13 -10 0 -18 5 -18 11 0 6 -6 6 -15 -2 -9 -7 -15 -8 -15 -2 0 6
-11 9 -25 7 -14 -1 -28 2 -31 7 -3 5 -12 7 -20 4 -7 -3 -16 -2 -18 3 -3 4 -19
7 -36 6 -16 -1 -30 1 -30 5 0 13 -38 18 -49 7 -7 -7 -11 -7 -11 -1 0 9 -18 13
-80 17 -14 2 -31 6 -37 10 -7 5 -13 5 -13 0 0 -4 -5 -1 -10 7 -7 11 -10 11
-10 2 0 -9 -5 -10 -19 -3 -10 6 -21 7 -25 4 -3 -3 -6 -1 -6 5 0 6 -8 11 -17
11 -50 1 -99 7 -103 13 -3 4 -17 8 -30 10 -14 2 -31 7 -37 11 -7 5 -17 5 -23
2 -5 -3 -10 -2 -10 2 0 5 -8 9 -17 10 -16 1 -31 4 -84 15 -10 2 -25 10 -35 18
-11 9 -15 10 -10 3 4 -7 2 -13 -3 -13 -6 0 -11 4 -11 9 0 6 -9 8 -20 6 -11 -2
-20 0 -20 4 0 5 -12 9 -27 9 -15 0 -29 5 -31 11 -2 6 -8 8 -13 5 -6 -3 -16 0
-24 6 -12 10 -15 10 -15 -1 0 -8 -5 -6 -13 6 -8 10 -19 15 -25 11 -6 -3 -13
-2 -17 3 -3 6 -13 7 -22 4 -10 -4 -14 -2 -10 4 4 7 0 10 -10 8 -10 -1 -24 2
-30 8 -7 5 -13 7 -13 3 0 -4 -15 1 -32 11 -18 9 -43 17 -55 16 -13 0 -23 4
-23 9 0 5 -6 8 -12 7 -7 -1 -26 3 -43 10 -16 7 -32 12 -35 13 -3 0 -11 5 -19
11 -12 9 -13 9 -7 -1 4 -7 -9 -3 -29 8 -21 12 -34 15 -30 8 4 -7 -1 -4 -10 7
-9 11 -17 18 -18 16 -1 -3 -13 -1 -27 3 -14 5 -29 8 -34 7 -4 -1 -14 3 -20 9
-7 5 -16 7 -19 3 -4 -3 -7 -2 -7 4 0 9 -38 25 -55 23 -3 -1 -18 6 -33 14 -34
18 -65 30 -74 28 -5 -1 -8 2 -8 7 0 5 -8 8 -17 7 -10 -2 -23 4 -30 13 -11 14
-12 14 -13 1 0 -12 -3 -11 -11 3 -6 9 -14 15 -19 12 -5 -3 -11 -1 -15 5 -4 6
-11 8 -16 5 -5 -4 -9 -1 -9 4 0 6 -9 11 -20 11 -11 0 -20 5 -20 11 0 5 -5 7
-11 4 -5 -4 -20 1 -31 12 -14 12 -19 13 -13 3 6 -11 3 -10 -12 3 -11 9 -27 17
-36 17 -9 0 -19 5 -22 11 -4 6 -13 8 -21 5 -8 -3 -14 -2 -14 3 0 11 -49 33
-60 26 -4 -3 -13 2 -20 10 -7 8 -16 12 -21 9 -5 -3 -9 0 -9 6 0 6 -4 9 -9 6
-5 -4 -11 -2 -13 3 -1 5 -14 11 -28 13 -14 1 -31 9 -39 16 -7 7 -19 11 -26 8
-8 -3 -16 2 -19 10 -3 8 -9 14 -13 13 -4 -1 -10 -1 -13 1 -3 1 -16 4 -30 6
-14 3 -26 9 -28 14 -2 5 -9 7 -17 4 -7 -3 -16 0 -20 5 -3 6 -10 9 -15 6 -5 -3
-11 -1 -15 5 -3 5 -13 10 -21 10 -8 0 -33 9 -56 20 -22 11 -45 17 -49 14 -5
-3 -9 0 -9 5 0 6 -4 11 -9 11 -5 0 -22 5 -38 12 -15 6 -30 12 -33 13 -3 0 -16
7 -29 14 -13 7 -21 8 -17 3 4 -6 -14 0 -39 14 -24 14 -49 23 -54 20 -5 -4 -11
-2 -13 3 -1 5 -12 11 -23 13 -11 1 -23 6 -26 10 -3 5 -17 9 -32 10 -15 1 -27
6 -27 10 0 4 -8 8 -18 8 -10 0 -24 6 -31 12 -11 11 -12 10 -6 -2 7 -12 6 -13
-6 -3 -16 13 -120 49 -131 45 -5 -1 -8 3 -8 9 0 6 -6 9 -13 6 -7 -3 -21 1 -31
8 -10 8 -24 11 -32 8 -8 -3 -14 -1 -14 4 0 5 -6 10 -12 11 -26 1 -60 11 -89
26 -16 8 -26 10 -23 4 4 -5 -4 -4 -17 3 -13 7 -32 12 -43 10 -10 -1 -16 2 -12
7 3 5 -5 8 -17 8 -12 -1 -26 1 -32 5 -5 4 -14 8 -20 9 -5 1 -9 5 -8 9 1 4 -11
5 -28 3 -16 -2 -29 0 -29 5 0 5 -6 10 -12 10 -37 3 -79 11 -85 16 -3 4 -15 7
-25 7 -10 0 -18 5 -18 12 0 9 -3 9 -11 1 -8 -8 -20 -7 -44 7 -24 14 -36 15
-44 7 -8 -8 -11 -8 -11 2 0 7 -4 10 -9 6 -5 -3 -12 -1 -16 4 -3 6 -12 8 -20 5
-8 -3 -20 -2 -27 2 -7 5 -26 9 -41 9 -15 0 -32 7 -36 14 -6 10 -10 10 -12 2
-4 -12 -24 13 -259 339 -145 201 -190 263 -205 288 -5 8 -18 26 -29 38 -10 12
-17 25 -16 29 1 4 -7 14 -17 23 -10 9 -35 40 -54 67 -20 28 -66 92 -103 143
-37 52 -66 95 -64 96 8 7 234 72 276 81 24 4 189 57 367 117 83 28 156 51 163
51 6 0 12 5 12 10 0 5 11 7 25 5 13 -3 22 -2 20 3 -7 11 32 22 46 13 8 -4 9
-3 5 4 -4 8 0 12 11 12 11 0 23 4 29 8 5 5 50 24 99 42 79 29 161 61 260 105
17 7 75 31 130 55 55 23 107 46 115 51 8 5 28 14 43 20 16 6 50 22 75 35 26
13 52 24 59 24 6 0 13 3 15 8 4 9 110 58 116 54 3 -2 8 1 11 6 3 5 60 37 126
72 159 83 237 126 313 172 34 21 65 38 67 38 11 0 260 157 435 273 84 56 360
253 405 289 6 5 53 42 105 84 122 96 115 91 185 149 67 55 201 174 251 220 17
17 58 55 90 85 32 30 61 54 66 53 4 -2 8 1 8 6 0 4 48 57 108 118 59 60 142
147 186 194 43 46 83 83 88 81 5 -1 7 1 4 6 -4 7 21 39 135 172 22 25 42 50
47 55 13 18 86 110 97 121 5 6 17 22 25 34 8 12 20 28 25 34 12 13 55 71 127
171 27 39 55 69 60 67 5 -1 7 2 3 8 -4 6 7 28 24 49 17 21 31 42 31 45 0 3 20
35 45 70 25 36 45 67 45 70 0 3 20 36 44 73 38 60 62 100 113 193 8 14 29 52
48 85 19 33 53 98 77 145 23 47 46 88 51 91 5 3 9 10 8 15 0 5 10 32 23 59 13
28 29 64 37 82 7 17 17 29 23 26 5 -3 6 -1 3 4 -6 9 94 264 122 313 5 9 12 31
16 50 4 19 11 41 16 50 16 31 95 266 114 340 45 173 35 160 156 201 78 26 124
47 251 109 53 27 99 46 102 44 3 -2 4 -1 1 3 -3 3 21 22 53 42 53 33 160 108
172 121 3 3 39 34 80 70 41 36 81 72 88 82 7 9 20 25 29 34 20 19 102 122 120
150 47 71 62 96 89 149 64 122 114 274 131 395 10 70 10 290 0 355 -4 28 -14
75 -23 105 -8 30 -19 69 -23 85 -13 48 -65 168 -105 238 -85 153 -257 348
-406 462 -36 27 -67 52 -70 55 -3 3 -14 10 -25 17 -11 7 -50 30 -86 52 -108
66 -277 146 -374 179 -16 6 -39 14 -50 18 -11 4 -24 8 -30 8 -5 1 -17 33 -26
71 -17 72 -85 308 -96 335 -3 8 -7 20 -9 25 -20 76 -146 399 -224 575 -50 113
-193 399 -245 490 -21 36 -46 79 -56 97 -10 17 -29 50 -43 72 -15 22 -26 43
-26 46 0 3 -8 18 -19 33 -10 15 -63 94 -117 177 -55 82 -104 157 -111 165 -7
8 -51 67 -97 130 -47 63 -97 131 -113 150 -45 56 -236 284 -247 296 -6 6 -45
49 -86 95 -152 169 -442 451 -650 630 -402 348 -972 741 -1428 986 -24 13 -67
36 -95 52 -132 73 -441 223 -622 300 -66 29 -133 58 -150 66 -16 7 -47 19 -67
26 -21 7 -38 17 -38 21 0 4 -3 7 -7 6 -10 -2 -47 9 -88 27 -125 56 -735 262
-855 290 -8 2 -15 4 -15 5 0 1 -7 3 -15 5 -8 1 -35 8 -60 16 -25 7 -50 13 -56
15 -40 8 -57 20 -75 55 -24 47 -38 66 -104 133 -55 56 -158 136 -175 136 -5 0
-10 5 -10 10 0 6 -6 10 -14 10 -8 0 -16 3 -18 8 -3 7 -151 82 -240 122 l-48
20 -2 1528 -3 1527 -1856 3 c-1021 1 -1859 -1 -1862 -5z"/>
<path d="M1667 7699 c7 -7 15 -10 18 -7 3 3 -2 9 -12 12 -14 6 -15 5 -6 -5z"/>
<path d="M1959 6813 c-13 -16 -12 -17 4 -4 16 13 21 21 13 21 -2 0 -10 -8 -17
-17z"/>
<path d="M17480 5900 c-9 -6 -10 -10 -3 -10 6 0 15 5 18 10 8 12 4 12 -15 0z"/>
<path d="M2590 5819 c0 -5 5 -7 10 -4 6 3 10 8 10 11 0 2 -4 4 -10 4 -5 0 -10
-5 -10 -11z"/>
<path d="M17466 5818 c3 -5 10 -6 15 -3 13 9 11 12 -6 12 -8 0 -12 -4 -9 -9z"/>
<path d="M2673 5655 c0 -8 4 -12 9 -9 5 3 6 10 3 15 -9 13 -12 11 -12 -6z"/>
<path d="M17395 5661 c-3 -5 -2 -12 3 -15 5 -3 9 1 9 9 0 17 -3 19 -12 6z"/>
<path d="M16515 4631 c-3 -5 -2 -12 3 -15 5 -3 9 1 9 9 0 17 -3 19 -12 6z"/>
<path d="M16193 4385 c0 -8 4 -12 9 -9 5 3 6 10 3 15 -9 13 -12 11 -12 -6z"/>
<path d="M15946 4138 c3 -5 10 -6 15 -3 13 9 11 12 -6 12 -8 0 -12 -4 -9 -9z"/>
<path d="M14675 3260 c3 -5 8 -10 11 -10 2 0 4 5 4 10 0 6 -5 10 -11 10 -5 0
-7 -4 -4 -10z"/>
<path d="M5876 3018 c3 -5 10 -6 15 -3 13 9 11 12 -6 12 -8 0 -12 -4 -9 -9z"/>
<path d="M13553 2785 c0 -8 4 -12 9 -9 5 3 6 10 3 15 -9 13 -12 11 -12 -6z"/>
<path d="M13153 2625 c0 -8 4 -12 9 -9 5 3 6 10 3 15 -9 13 -12 11 -12 -6z"/>
</g>
</svg>
